<svg xmlns="http://www.w3.org/2000/svg" viewBox="0 0 512 512" role="img" aria-label="Ocean icon">
  <rect width="512" height="512" rx="112" fill="#0a0a0a"/>
  <circle cx="256" cy="256" r="178" fill="#3A63EC" opacity=".18"/>
  <path d="M121 285c46 32 87 32 123 0 36-31 77-31 123 0 11 8 26 5 34-7 8-12 5-27-7-35-64-44-126-44-183 0-19 15-40 15-64 0-12-8-27-5-35 7-8 12-4 27 9 35Z" fill="#3A81EC"/>
  <path d="M143 357c39 24 77 22 114-6 31-24 67-22 109 6 12 8 27 5 35-7 8-12 5-27-7-35-60-40-118-40-174 1-18 14-35 14-52 0-12-8-27-5-35 7-8 12-4 27 10 34Z" fill="#ffffff"/>
  <path d="M215 140h82c53 0 96 43 96 96v8h-58v-8c0-21-17-38-38-38h-82c-21 0-38 17-38 38v8h-58v-8c0-53 43-96 96-96Z" fill="#FFB224"/>
</svg>
